<?xml version="1.0" encoding="UTF-8" standalone="no"?>
<svg
   xmlns:dc="http://purl.org/dc/elements/1.1/"
   xmlns:cc="http://creativecommons.org/ns#"
   xmlns:rdf="http://www.w3.org/1999/02/22-rdf-syntax-ns#"
   xmlns:svg="http://www.w3.org/2000/svg"
   xmlns="http://www.w3.org/2000/svg"
   xmlns:xlink="http://www.w3.org/1999/xlink"
   xmlns:sodipodi="http://sodipodi.sourceforge.net/DTD/sodipodi-0.dtd"
   xmlns:inkscape="http://www.inkscape.org/namespaces/inkscape"
   width="150mm"
   height="150mm"
   viewBox="0 0 150 150"
   version="1.1"
   id="svg839"
   inkscape:version="1.0.2 (e86c870879, 2021-01-15)"
   sodipodi:docname="cobalt-logo.svg">
  <defs
     id="defs833">
    <linearGradient
       inkscape:collect="always"
       id="linearGradient1496">
      <stop
         style="stop-color:#b6d5ea;stop-opacity:1;"
         offset="0"
         id="stop1492" />
      <stop
         style="stop-color:#b6d5ea;stop-opacity:0;"
         offset="1"
         id="stop1494" />
    </linearGradient>
    <linearGradient
       inkscape:collect="always"
       id="linearGradient1488">
      <stop
         style="stop-color:#141941;stop-opacity:1;"
         offset="0"
         id="stop1484" />
      <stop
         style="stop-color:#141941;stop-opacity:0;"
         offset="1"
         id="stop1486" />
    </linearGradient>
    <linearGradient
       inkscape:collect="always"
       xlink:href="#linearGradient1488"
       id="linearGradient1490"
       x1="0.61328125"
       y1="328.35059"
       x2="480.85547"
       y2="328.35059"
       gradientUnits="userSpaceOnUse" />
    <linearGradient
       inkscape:collect="always"
       xlink:href="#linearGradient1496"
       id="linearGradient1498"
       x1="-15.249573"
       y1="60.422638"
       x2="74.68631"
       y2="-10.546896"
       gradientUnits="userSpaceOnUse"
       gradientTransform="matrix(1.0018386,0,0,1,-0.18651528,-0.05905877)" />
  </defs>
  <sodipodi:namedview
     id="base"
     pagecolor="#ffffff"
     bordercolor="#666666"
     borderopacity="1.0"
     inkscape:pageopacity="0.0"
     inkscape:pageshadow="2"
     inkscape:zoom="0.175"
     inkscape:cx="-897.4113"
     inkscape:cy="-1073.8844"
     inkscape:document-units="mm"
     inkscape:current-layer="g1513"
     inkscape:document-rotation="0"
     showgrid="false"
     inkscape:window-width="2560"
     inkscape:window-height="1403"
     inkscape:window-x="0"
     inkscape:window-y="0"
     inkscape:window-maximized="1" />
  <metadata
     id="metadata836">
    <rdf:RDF>
      <cc:Work
         rdf:about="">
        <dc:format>image/svg+xml</dc:format>
        <dc:type
           rdf:resource="http://purl.org/dc/dcmitype/StillImage" />
        <dc:title></dc:title>
      </cc:Work>
    </rdf:RDF>
  </metadata>
  <g
     inkscape:label="Layer 1"
     inkscape:groupmode="layer"
     id="layer1">
    <g
       id="g1513"
       transform="translate(11.441241,11.414324)">
      <rect
         style="fill:#3864c0;fill-opacity:1;stroke-width:8.265;stroke-linecap:round;stroke-linejoin:round"
         id="rect1402"
         width="127.22659"
         height="127.22659"
         x="0"
         y="0"
         ry="12.070945" />
      <path
         id="rect1402-3"
         style="fill:#3864c0;fill-opacity:1;stroke-width:8.265;stroke-linecap:round;stroke-linejoin:round"
         d="M 12.070977,-1.2e-5 H 115.15568 c 6.6873,0 12.07094,5.3836414 12.07094,12.070945 V 115.15564 c 0,6.6873 -5.38364,12.07094 -12.07094,12.07094 H 12.070977 C 5.3836729,127.22658 3.15e-5,121.84294 3.15e-5,115.15564 V 12.070933 C 3.15e-5,5.3836294 5.3836729,-1.2e-5 12.070977,-1.2e-5 Z" />
      <path
         id="rect1402-3-6"
         style="fill:url(#linearGradient1490);fill-opacity:1;stroke-width:31.2378;stroke-linecap:round;stroke-linejoin:round"
         d="m 480.85547,175.8457 c 0,17.01574 -0.16602,39.2461 -0.16602,39.2461 -4.09897,61.29956 -12.23359,94.49888 -44.76945,132.7112 -74.49652,74.49652 -279.73919,98.03452 -419.492266,106.70286 -1.62092,0.0925 -3.15714,-0.0293 -4.59375,-0.35352 C 10.397375,453.82811 9.0617115,453.3004 7.84375,452.57812 6.6257885,451.85585 5.5255236,450.93945 4.5605469,449.83789 3.5955701,448.73633 2.7655455,447.45039 2.0878906,445.98828 1.4464312,444.60427 0.96734719,443.03643 0.61328125,441.3457 3.609545,463.67943 22.443078,480.85547 45.623047,480.85547 H 435.23438 c 25.27483,0 45.62109,-20.34626 45.62109,-45.62109 z"
         transform="scale(0.26458333)"
         sodipodi:nodetypes="ccccsssscsssc" />
      <path
         id="path1461"
         style="opacity:0;fill:#666666;fill-opacity:1;stroke-width:31.2378;stroke-linecap:round;stroke-linejoin:round"
         d="m 480.85547,46.306641 c 0,-2.126966 -0.18666,-4.097822 -0.54297,-5.902344 -0.35631,-1.804522 -0.88045,-3.443199 -1.55859,-4.90625 -0.67815,-1.463051 -1.50912,-2.750963 -2.47461,-3.853516 -0.96549,-1.102553 -2.06681,-2.019159 -3.28516,-2.742187 -1.21835,-0.723028 -2.5535,-1.251696 -3.99023,-1.576172 -1.43673,-0.324476 -2.97508,-0.444666 -4.59571,-0.351563 -1.62062,0.0931 -3.32371,0.399979 -5.09375,0.929688 -1.77004,0.529709 -3.60722,1.282235 -5.49218,2.267578 L 0.40429688,267.19141 c -1e-8,0 -0.3787228,20.48126 -0.40429688,37.19336 v 130.84961 c 0,2.09487 0.34249509,4.09292 0.61328125,6.11132 0.35406594,1.69073 0.83314995,3.25857 1.47460935,4.64258 0.6776549,1.46211 1.5076795,2.74805 2.4726563,3.84961 0.9649767,1.10156 2.0652416,2.01796 3.2832031,2.74023 1.2179615,0.72228 2.553625,1.24999 3.990234,1.57422 1.43661,0.32424 2.97283,0.44606 4.59375,0.35352 1.62092,-0.0925 3.326763,-0.39968 5.097657,-0.92774 1.770893,-0.52805 3.60761,-1.27744 5.49414,-2.25976 L 480.68945,215.0918 c 0,0 0.16602,-22.23036 0.16602,-39.2461 z"
         transform="scale(0.26458333)" />
      <g
         aria-label="Co"
         id="text1406"
         style="font-style:normal;font-weight:normal;font-size:68.7129px;line-height:1.25;font-family:sans-serif;letter-spacing:0px;word-spacing:0px;fill:#ffffff;fill-opacity:1;stroke:none;stroke-width:1.71781"
         transform="translate(-0.37797619,-3.1750001)">
        <path
           d="m 49.011952,88.452996 q -7.146141,0 -12.230896,-3.023368 -5.084754,-3.023367 -7.83327,-8.589112 -2.679803,-5.565745 -2.679803,-13.26159 0,-7.627131 2.679803,-13.192876 2.748516,-5.565745 7.83327,-8.589112 5.084755,-3.023368 12.230896,-3.023368 4.2602,0 8.108122,1.236832 3.847923,1.236832 6.665151,3.504358 1.16812,0.824555 1.305545,1.923961 0.206139,1.099407 -0.343564,1.992674 -0.549703,0.824555 -1.580397,1.099407 -0.96198,0.206138 -2.198812,-0.687129 -4.878616,-3.916636 -11.818619,-3.916636 -8.176835,0 -12.505747,5.153468 -4.328913,5.153467 -4.328913,14.498421 0,9.413667 4.328913,14.567135 4.328912,5.153467 12.505747,5.153467 6.940003,0 11.956044,-3.985348 1.236833,-0.824555 2.198813,-0.618416 1.030694,0.206139 1.511684,1.030693 0.549703,0.824555 0.412277,1.855249 -0.137426,1.030693 -1.168119,1.855248 -2.954655,2.473664 -6.802577,3.779209 -3.847922,1.236833 -8.245548,1.236833 z"
           style="font-style:normal;font-variant:normal;font-weight:normal;font-stretch:normal;font-family:Nunito;-inkscape-font-specification:Nunito;fill:#ffffff;fill-opacity:1;stroke-width:1.71781"
           id="path1500" />
        <path
           d="m 85.017282,88.452996 q -4.878616,0 -8.451686,-2.1301 -3.573071,-2.1301 -5.565745,-5.978022 -1.923961,-3.916636 -1.923961,-9.207529 0,-5.290893 1.923961,-9.138815 1.992674,-3.916635 5.565745,-6.046735 3.57307,-2.1301 8.451686,-2.1301 4.809903,0 8.382974,2.1301 3.641783,2.1301 5.565744,6.046735 1.99267,3.847922 1.99267,9.138815 0,5.290893 -1.99267,9.207529 -1.923961,3.847922 -5.565744,5.978022 -3.573071,2.1301 -8.382974,2.1301 z m 0,-4.466339 q 4.672477,0 7.489706,-3.298219 2.817229,-3.366932 2.817229,-9.551093 0,-6.252874 -2.817229,-9.551093 -2.817229,-3.298219 -7.489706,-3.298219 -4.74119,0 -7.558419,3.298219 -2.748516,3.298219 -2.748516,9.551093 0,6.184161 2.748516,9.551093 2.817229,3.298219 7.558419,3.298219 z"
           style="font-style:normal;font-variant:normal;font-weight:normal;font-stretch:normal;font-family:Nunito;-inkscape-font-specification:Nunito;fill:#ffffff;fill-opacity:1;stroke-width:1.71781"
           id="path1502" />
      </g>
      <path
         id="rect1402-3-6-7"
         style="fill:url(#linearGradient1498);fill-opacity:1;stroke-width:8.27259;stroke-linecap:round;stroke-linejoin:round"
         d="m -0.10910183,80.645257 c 0,-4.502081 0.04401077,-10.383864 0.04401077,-10.383864 C 1.1655162,49.898617 3.1776638,45.258565 11.801941,35.148222 31.548718,15.437685 85.95235,9.2099208 122.99664,6.9164228 c 0.42966,-0.02447 0.83686,0.0078 1.21766,0.09354 0.3808,0.08579 0.73485,0.225409 1.05769,0.416512 0.32285,0.191101 0.61449,0.433565 0.87028,0.72502 0.25579,0.291454 0.4758,0.631692 0.65542,1.018542 0.17003,0.366186 0.29703,0.7810122 0.39088,1.2283512 -0.79422,-5.9091342 -5.78642,-10.45362852 -11.93073,-10.45362852 H 11.983675 c -6.6995974,0 -12.09277683,5.38328132 -12.09277683,12.07058252 z"
         sodipodi:nodetypes="ccccsssscsssc" />
      <g
         aria-label="ENGINE"
         id="text1517"
         style="font-style:normal;font-weight:normal;font-size:11.8663px;line-height:1.25;font-family:sans-serif;letter-spacing:1.18663px;word-spacing:0px;fill:#000000;fill-opacity:1;stroke:none;stroke-width:0.296659"
         transform="translate(0,-1.5875)">
        <path
           d="m 40.426501,101.63199 q -0.533984,0 -0.533984,-0.53398 v -7.297779 q 0,-0.533984 0.533984,-0.533984 h 4.414263 q 0.415321,0 0.415321,0.403454 0,0.415321 -0.415321,0.415321 h -3.998943 v 2.895377 h 3.749751 q 0.415321,0 0.415321,0.403454 0,0.415321 -0.415321,0.415321 h -3.749751 v 3.014036 h 3.998943 q 0.415321,0 0.415321,0.40346 0,0.41532 -0.415321,0.41532 z"
           style="font-style:normal;font-variant:normal;font-weight:normal;font-stretch:normal;font-family:Nunito;-inkscape-font-specification:Nunito;fill:#ffffff;stroke-width:0.296659"
           id="path1452" />
        <path
           d="m 48.459965,101.71505 q -0.462786,0 -0.462786,-0.48652 v -7.546962 q 0,-0.498385 0.427187,-0.498385 0.177995,0 0.272925,0.0712 0.09493,0.05933 0.213593,0.22546 l 4.888916,6.514598 v -6.336604 q 0,-0.474652 0.462786,-0.474652 0.439053,0 0.439053,0.474652 v 7.582563 q 0,0.47465 -0.391588,0.47465 -0.177995,0 -0.284791,-0.0712 -0.106797,-0.0712 -0.22546,-0.22545 l -4.888916,-6.538334 v 6.348464 q 0,0.48652 -0.450919,0.48652 z"
           style="font-style:normal;font-variant:normal;font-weight:normal;font-stretch:normal;font-family:Nunito;-inkscape-font-specification:Nunito;fill:#ffffff;stroke-width:0.296659"
           id="path1454" />
        <path
           d="m 61.785817,101.73879 q -2.017271,0 -3.073371,-1.13917 -1.056101,-1.139164 -1.056101,-3.144569 0,-1.329026 0.474652,-2.290196 0.474652,-0.96117 1.364625,-1.483287 0.889972,-0.522117 2.1478,-0.522117 0.747577,0 1.447688,0.213593 0.700112,0.201727 1.245962,0.652646 0.166128,0.118663 0.189861,0.296658 0.02373,0.166128 -0.0712,0.32039 -0.08306,0.142396 -0.249192,0.189861 -0.154262,0.04747 -0.332257,-0.0712 -0.486518,-0.379722 -1.032368,-0.54585 -0.54585,-0.177994 -1.210363,-0.177994 -1.423955,0 -2.183399,0.901839 -0.759443,0.889972 -0.759443,2.515655 0,1.661282 0.783176,2.539388 0.783176,0.878113 2.337661,0.878113 1.008635,0 1.934207,-0.34413 v -2.480056 h -1.696881 q -0.427187,0 -0.427187,-0.391588 0,-0.379721 0.427187,-0.379721 h 2.124068 q 0.41532,0 0.41532,0.41532 v 3.097105 q 0,0.36786 -0.261058,0.47465 -0.498385,0.2136 -1.198497,0.34413 -0.688245,0.13053 -1.340892,0.13053 z"
           style="font-style:normal;font-variant:normal;font-weight:normal;font-stretch:normal;font-family:Nunito;-inkscape-font-specification:Nunito;fill:#ffffff;stroke-width:0.296659"
           id="path1456" />
        <path
           d="m 68.252949,101.71505 q -0.486519,0 -0.486519,-0.51025 v -7.511366 q 0,-0.510251 0.486519,-0.510251 0.486518,0 0.486518,0.510251 v 7.511366 q 0,0.51025 -0.486518,0.51025 z"
           style="font-style:normal;font-variant:normal;font-weight:normal;font-stretch:normal;font-family:Nunito;-inkscape-font-specification:Nunito;fill:#ffffff;stroke-width:0.296659"
           id="path1458" />
        <path
           d="m 72.465483,101.71505 q -0.462786,0 -0.462786,-0.48652 v -7.546962 q 0,-0.498385 0.427187,-0.498385 0.177995,0 0.272925,0.0712 0.09493,0.05933 0.213593,0.22546 l 4.888916,6.514598 v -6.336604 q 0,-0.474652 0.462786,-0.474652 0.439053,0 0.439053,0.474652 v 7.582563 q 0,0.47465 -0.391588,0.47465 -0.177995,0 -0.284791,-0.0712 -0.106797,-0.0712 -0.22546,-0.22545 l -4.888916,-6.538334 v 6.348464 q 0,0.48652 -0.450919,0.48652 z"
           style="font-style:normal;font-variant:normal;font-weight:normal;font-stretch:normal;font-family:Nunito;-inkscape-font-specification:Nunito;fill:#ffffff;stroke-width:0.296659"
           id="path1460" />
        <path
           d="m 82.50437,101.63199 q -0.533983,0 -0.533983,-0.53398 v -7.297779 q 0,-0.533984 0.533983,-0.533984 h 4.414264 q 0.41532,0 0.41532,0.403454 0,0.415321 -0.41532,0.415321 h -3.998943 v 2.895377 h 3.749751 q 0.41532,0 0.41532,0.403454 0,0.415321 -0.41532,0.415321 h -3.749751 v 3.014036 h 3.998943 q 0.41532,0 0.41532,0.40346 0,0.41532 -0.41532,0.41532 z"
           style="font-style:normal;font-variant:normal;font-weight:normal;font-stretch:normal;font-family:Nunito;-inkscape-font-specification:Nunito;fill:#ffffff;stroke-width:0.296659"
           id="path1462" />
      </g>
    </g>
  </g>
</svg>
